<svg xmlns="http://www.w3.org/2000/svg" width="48" height="52" viewBox="0 0 48 52" fill="none">
  <path
    d="M2.96129 23.6525C2.92781 23.809 2.73897 23.8504 2.39476 23.7767C2.21744 23.7388 2.05053 23.6267 1.89403 23.4405C1.74795 23.2566 1.68496 23.1176 1.70504 23.0238C1.7296 22.909 1.80518 22.8107 1.93181 22.7287C2.06886 22.6489 2.19476 22.6213 2.30949 22.6459C2.30949 22.6459 2.34265 22.6693 2.40897 22.7162C2.48795 22.755 2.56732 22.8428 2.64707 22.9799C2.71266 23.0812 2.78311 23.2108 2.8584 23.3687C2.93369 23.5266 2.96799 23.6212 2.96129 23.6525ZM1.24669 33.5775C1.22437 33.6818 1.16069 33.75 1.05566 33.782C0.958824 33.8268 0.854154 33.8316 0.74165 33.7966C0.597854 33.755 0.538549 33.4968 0.563737 33.0223C0.599355 32.5499 0.717915 31.6645 0.919419 30.3659C1.05848 29.5121 1.19828 28.6803 1.33885 27.8704C1.48164 27.0501 1.59469 26.4198 1.67799 25.9795C1.70255 25.8648 1.73605 25.7847 1.7785 25.7392C1.83361 25.6856 1.91332 25.6699 2.01762 25.6922C2.25753 25.7436 2.38757 25.875 2.40775 26.0866C2.42793 26.2982 2.37775 26.6856 2.25723 27.2488L1.84655 29.0917C1.62114 30.1452 1.47165 30.9967 1.39809 31.6464C1.39139 31.6777 1.36691 32.0215 1.32464 32.6779C1.30392 33.1316 1.27793 33.4314 1.24669 33.5775Z"
    fill="white" />
  <path
    d="M8.5833 35.2127C8.55652 35.3379 8.48205 35.4311 8.35989 35.4922C8.23549 35.5637 8.10028 35.5839 7.95426 35.5527C7.84995 35.5303 7.76687 35.4853 7.70502 35.4175C7.64093 35.3602 7.61781 35.2898 7.63567 35.2063C7.72717 34.7787 7.90019 34.123 8.15471 33.2394C8.42262 32.2932 8.62465 31.5019 8.76079 30.8657C8.89247 30.2503 8.97874 29.7451 9.0196 29.3503C9.07311 28.9472 9.03208 28.7312 8.89648 28.7022C8.54184 28.6263 8.05584 28.9859 7.43848 29.781C6.83378 30.5679 6.10624 31.623 5.25586 32.9464L4.88726 33.522C4.82322 33.6174 4.73235 33.6852 4.61465 33.7254C4.50739 33.7679 4.4016 33.778 4.29729 33.7557C4.17213 33.7289 4.09091 33.7006 4.05366 33.6709C4.0164 33.6411 4.00371 33.5729 4.0156 33.4664L4.16495 32.1566L4.41234 29.8534C4.53127 28.9408 4.61 28.1395 4.64853 27.4496C4.65071 27.2865 4.66073 27.1632 4.67859 27.0797C4.71207 26.9233 4.80665 26.8126 4.96233 26.7477C5.12025 26.6724 5.28787 26.6538 5.46519 26.6917C5.56949 26.714 5.58894 26.98 5.52353 27.4896C5.46856 28.0014 5.34774 28.8209 5.16109 29.9482L5.04624 30.7908C4.90427 31.8621 4.80837 32.5397 4.75854 32.8236C4.80322 32.7677 4.8438 32.7055 4.88029 32.6369C4.92943 32.5602 4.98491 32.4793 5.04672 32.3944C5.92243 31.0546 6.70918 29.9522 7.40698 29.087C8.11744 28.2137 8.70215 27.8261 9.16109 27.9243C9.48444 27.9935 9.64433 28.3168 9.64078 28.8941C9.64989 29.4633 9.57859 30.1789 9.42687 31.0409C9.25506 31.9968 8.97387 33.3874 8.5833 35.2127Z"
    fill="white" />
  <path
    d="M16.5379 34.5096C16.4397 34.9685 16.1571 35.3716 15.6901 35.7189C15.2357 36.058 14.6793 36.288 14.0207 36.4089C13.36 36.5402 12.701 36.5356 12.0439 36.395C11.5954 36.299 11.3018 36.1926 11.1632 36.0757C11.0246 35.9587 10.9709 35.8273 11.0022 35.6812C11.0223 35.5874 11.1768 35.4513 11.4658 35.2732C11.7571 35.0846 11.9444 34.9993 12.0278 35.0171C12.153 35.0439 12.21 35.0834 12.1989 35.1355C12.1899 35.1773 12.1549 35.2134 12.0938 35.244C12.0328 35.2745 11.9989 35.3055 11.9922 35.3368C11.9833 35.3785 12.0369 35.4336 12.1532 35.5021C12.2798 35.5728 12.437 35.6283 12.6248 35.6685C13.0629 35.7622 13.5177 35.7777 13.9892 35.715C14.4735 35.6441 14.8843 35.5083 15.2217 35.3078C15.5591 35.1073 15.7591 34.8611 15.8216 34.569C15.8818 34.2874 15.8412 34.0441 15.6996 33.8393C15.558 33.6345 15.3594 33.4666 15.1038 33.3355C14.8609 33.1963 14.4421 32.9867 13.8475 32.7067C13.1926 32.403 12.6844 32.1524 12.3231 31.9551C11.9743 31.7496 11.7042 31.5336 11.5127 31.3072C11.3234 31.0704 11.2589 30.8111 11.3191 30.5295C11.4263 30.0288 11.7696 29.6224 12.3491 29.31C12.9286 28.9977 13.5622 28.7897 14.2497 28.6859C14.9373 28.5821 15.4532 28.5671 15.7975 28.6407C16.1521 28.7166 16.3071 28.8589 16.2625 29.0675C16.2357 29.1926 16.1638 29.3245 16.0469 29.4631C15.9322 29.5913 15.7914 29.6375 15.6245 29.6018C15.562 29.5884 15.4986 29.5531 15.4345 29.4957C15.3727 29.4279 15.3052 29.3862 15.2322 29.3706C15.0236 29.326 14.6805 29.3235 14.203 29.3631C13.7255 29.4027 13.2752 29.5191 12.8521 29.7122C12.429 29.9052 12.1761 30.1948 12.0936 30.5807C12.04 30.831 12.1406 31.0489 12.3955 31.2343C12.663 31.4116 13.1689 31.6725 13.9133 32.0172C14.0004 32.0686 14.0887 32.1148 14.1782 32.1557C14.2698 32.1862 14.3499 32.2197 14.4184 32.2562C15.1814 32.6158 15.7511 32.9613 16.1274 33.2927C16.5037 33.6241 16.6405 34.0298 16.5379 34.5096Z"
    fill="white" />
  <path
    d="M25.1385 34.7136C24.9801 35.4542 24.3775 35.9252 23.3309 36.1267C22.2842 36.3282 20.9768 36.3211 19.4085 36.1055C19.2359 36.8103 19.1016 37.387 19.0056 37.8355C18.8784 38.4301 18.7884 38.978 18.7357 39.4794C18.7163 39.6716 18.6989 39.8042 18.6833 39.8773C18.6475 40.0442 18.5809 40.1772 18.4833 40.2763C18.3835 40.3858 18.2658 40.4261 18.1302 40.3971C17.9425 40.3569 17.8527 40.2668 17.8609 40.1267C17.8884 39.9472 17.9319 39.6674 17.9913 39.2874C18.059 38.9201 18.133 38.5487 18.2134 38.1732L18.6977 35.9862C18.6456 35.975 18.5454 35.959 18.3971 35.9382C18.2593 35.9196 18.1226 35.8958 17.987 35.8668C17.7366 35.8132 17.6483 35.6144 17.7219 35.2701C17.7755 35.0198 17.8649 34.908 17.99 34.9348C18.0318 34.9437 18.1502 35.0018 18.3455 35.109C18.5407 35.2163 18.7113 35.2855 18.8573 35.3167L19.7891 30.8856C19.7079 30.8573 19.5391 30.8049 19.2828 30.7282C19.0288 30.6411 18.847 30.5477 18.7374 30.4479C18.6383 30.3503 18.6033 30.2337 18.6323 30.0981C18.6903 29.8269 18.7715 29.7025 18.8758 29.7248C18.9905 29.7494 19.1224 29.8212 19.2714 29.9404C19.2901 29.9553 19.3459 30 19.4391 30.0744C19.5345 30.1385 19.6738 30.201 19.8571 30.262C19.9554 30.1085 20.0373 30.0061 20.1028 29.9547C20.1788 29.9055 20.3002 29.8987 20.4671 29.9344C20.6757 29.9791 20.7711 30.0431 20.7533 30.1266C20.7466 30.1578 20.7186 30.2119 20.6695 30.2886C20.6226 30.3549 20.5913 30.4246 20.5757 30.4976C21.2023 30.7299 21.8912 31.0791 22.6422 31.5452C23.406 32.0031 24.0383 32.5148 24.5391 33.0801C25.0503 33.6476 25.2501 34.1921 25.1385 34.7136ZM24.4524 34.6323C24.5461 34.1942 24.3806 33.7443 23.9558 33.2825C23.531 32.8207 22.9886 32.3992 22.3284 32.018C21.6786 31.639 21.0416 31.3281 20.4172 31.0855C20.3086 31.6949 20.1524 32.5014 19.9486 33.505C19.747 34.4981 19.6116 35.1563 19.5424 35.4797C20.1682 35.6136 20.8525 35.6782 21.5953 35.6735C22.3403 35.6584 22.9817 35.5666 23.5195 35.398C24.07 35.2213 24.381 34.9661 24.4524 34.6323Z"
    fill="white" />
  <path
    d="M32.3309 36.0072C32.4039 36.0228 32.4236 36.1088 32.3902 36.2653C32.35 36.453 32.121 36.8349 31.7032 37.4109C31.2959 37.9892 30.7526 38.4892 30.0733 38.9111C29.4044 39.3352 28.6632 39.4602 27.8496 39.2861C27.182 39.1433 26.6686 38.8152 26.3094 38.3021C25.9502 37.7889 25.8632 37.0994 26.0484 36.2337C26.2225 35.4201 26.5821 34.6571 27.1272 33.9447C27.6746 33.2219 28.3043 32.6749 29.0164 32.3037C29.7307 31.922 30.4112 31.8004 31.0579 31.9388C31.4439 32.0213 31.7482 32.1792 31.9711 32.4123C32.2065 32.6372 32.2897 32.9114 32.2205 33.2347C32.1424 33.5998 31.8579 33.9098 31.367 34.1647C30.8866 34.4219 30.2899 34.6105 29.577 34.7307C28.8641 34.8509 28.1459 34.8935 27.4225 34.8587C27.1947 35.3118 27.0316 35.7677 26.9334 36.2267C26.804 36.8317 26.8444 37.3312 27.0546 37.7252C27.2752 38.1215 27.6515 38.3765 28.1835 38.4903C28.9866 38.6622 29.6999 38.5149 30.3233 38.0483C30.9468 37.5817 31.5024 37.0243 31.9901 36.376C32.0199 36.3388 32.0732 36.2684 32.1499 36.1648C32.2288 36.0508 32.2891 35.9982 32.3309 36.0072ZM31.4796 33.2562C31.5153 33.0893 31.4546 32.9399 31.2973 32.8081C31.1505 32.6785 30.9624 32.5892 30.7329 32.5401C30.3366 32.4553 29.9279 32.5042 29.5071 32.6868C29.0862 32.8695 28.7116 33.1166 28.3831 33.4281C28.0651 33.7418 27.8394 34.0317 27.7062 34.2977C28.1971 34.3482 28.732 34.3208 29.3109 34.2156C29.8897 34.1104 30.3843 33.9653 30.7948 33.7805C31.2156 33.5978 31.4439 33.423 31.4796 33.2562Z"
    fill="white" />
  <path
    d="M38.2978 37.8566C38.2844 37.9192 38.1336 38.0887 37.8454 38.3652C37.5676 38.6439 37.2913 38.8902 37.0164 39.1041C36.3335 39.6452 35.735 40.0462 35.221 40.3071C34.7175 40.5702 34.231 40.6515 33.7616 40.5511C33.3653 40.4663 33.0735 40.2239 32.8864 39.8239C32.7097 39.4261 32.6694 39.003 32.7654 38.5545C32.9082 37.8869 33.2663 37.08 33.8397 36.1337C34.413 35.1873 35.0512 34.3967 35.7543 33.7618C36.4574 33.1268 37.0801 32.8674 37.6225 32.9834C37.852 33.0325 38.0323 33.1584 38.1635 33.361C38.2373 33.475 38.2992 33.6191 38.3491 33.7934C38.3991 33.9677 38.4107 34.1175 38.3839 34.2426C38.346 34.4199 38.2753 34.623 38.1718 34.8517C38.0809 35.0723 38.0095 35.177 37.9573 35.1658C37.853 35.1435 37.7975 35.0716 37.7907 34.9502C37.784 34.8287 37.7944 34.6782 37.8219 34.4987C37.8486 34.2208 37.8553 34.0368 37.8418 33.9467C37.8306 33.8461 37.7937 33.7891 37.7312 33.7757C37.2409 33.6708 36.6927 33.9135 36.0864 34.5037C35.4824 35.0835 34.9373 35.7958 34.4511 36.6408C33.9671 37.4754 33.6726 38.1377 33.5677 38.628C33.4204 39.3164 33.5763 39.7097 34.0352 39.8079C34.369 39.8793 34.6893 39.8606 34.9962 39.7517C35.3136 39.6451 35.6558 39.4729 36.023 39.2351C36.709 38.782 37.2531 38.3803 37.6553 38.03C37.6829 38.0032 37.757 37.9372 37.8777 37.8321C38.011 37.7189 38.0985 37.6667 38.1402 37.6756C38.2654 37.7024 38.3179 37.7627 38.2978 37.8566Z"
    fill="white" />
  <path
    d="M46.9438 36.5323C46.9059 36.7097 46.7986 36.8285 46.6221 36.8889C46.4559 36.9515 46.1691 36.9665 45.7616 36.9339C44.7663 36.8954 44.209 36.8744 44.0898 36.8707L43.036 36.8252C42.92 37.3676 42.8035 37.9371 42.6868 38.5339C42.5804 39.1329 42.4949 39.66 42.4302 40.1152C42.3425 40.7291 42.3162 41.2089 42.3513 41.5546C42.3864 41.9003 42.4047 42.0951 42.4062 42.139C42.3839 42.2433 42.296 42.3227 42.1426 42.3771C41.9973 42.4442 41.8673 42.4655 41.7526 42.4409C41.69 42.4275 41.6423 42.3955 41.6095 42.3449C41.5745 42.3047 41.5503 42.2395 41.5368 42.1493C41.5055 41.9899 41.5009 41.7053 41.5232 41.2956C41.5558 40.8881 41.6078 40.441 41.6792 39.9545C41.7394 39.5202 41.8194 39.0192 41.919 38.4515C42.0313 37.8755 42.1444 37.3216 42.2582 36.7896C41.654 36.7585 41.0297 36.7449 40.3853 36.7489C39.8079 36.7453 39.4671 36.7324 39.3628 36.7101C39.2376 36.6833 39.1255 36.6211 39.0264 36.5235C38.9377 36.4282 38.9068 36.318 38.9335 36.1928C38.9625 36.0572 39.0285 35.9786 39.1313 35.9569C39.2341 35.9353 39.395 35.9479 39.614 35.9948C39.7705 36.0283 40.0055 36.0513 40.3192 36.0639C40.6351 36.066 40.8369 36.0656 40.9249 36.0626C41.6527 36.0765 42.1463 36.0894 42.4055 36.1012C42.4524 35.8822 42.5034 35.5931 42.5584 35.234C42.6402 34.7497 42.7079 34.3824 42.7614 34.1321C42.8485 33.7253 42.9259 33.4146 42.9936 33.2001C43.074 32.9773 43.1697 32.785 43.2806 32.6233C43.4087 32.4326 43.5875 32.3618 43.8169 32.4109C43.9108 32.4309 43.9701 32.46 43.9946 32.498C44.0192 32.536 44.0226 32.5967 44.0048 32.6801C43.9914 32.7427 43.9262 32.9197 43.8094 33.211C43.6925 33.5023 43.5805 33.8983 43.4734 34.399C43.3908 34.7849 43.3086 35.22 43.2268 35.7043L43.152 36.1301C43.637 36.1575 44.6066 36.1631 46.0609 36.1471C46.1488 36.1441 46.2322 36.0856 46.3111 35.9715C46.4005 35.8598 46.4765 35.8106 46.5391 35.824C46.6538 35.8485 46.754 35.9409 46.8397 36.101C46.9381 36.253 46.9728 36.3967 46.9438 36.5323Z"
    fill="white" />
  <path
    d="M18.4275 50.6413C18.4007 50.7664 18.3367 50.8618 18.2354 50.9274C18.1318 51.0034 18.0123 51.0269 17.8767 50.9979C17.6889 50.9577 17.6151 50.8438 17.6553 50.656C18.1061 48.549 18.3832 46.923 18.4864 45.7779C18.5918 44.6224 18.4777 44.0089 18.1439 43.9375C17.5806 43.817 16.3359 45.6069 14.4097 49.3071L14.4064 49.3227C14.3796 49.4479 14.3144 49.5485 14.2109 49.6245C14.1096 49.6901 13.9912 49.7084 13.8556 49.6794C13.6678 49.6392 13.594 49.5252 13.6342 49.3375C13.7235 48.9202 13.8827 48.278 14.1119 47.4108C14.3634 46.4392 14.5494 45.6718 14.67 45.1086C14.8373 44.3263 14.9296 43.7679 14.9466 43.4334C14.9763 43.0907 14.9129 42.9026 14.7564 42.8691C14.4018 42.7932 13.8138 43.3492 12.9924 44.5369C12.1733 45.7143 11.2779 47.1207 10.3061 48.7563L10.0783 49.1329C10.0142 49.2283 9.93269 49.3036 9.83362 49.3587C9.74498 49.4161 9.65373 49.4348 9.55985 49.4147C9.43469 49.3879 9.35347 49.3596 9.31621 49.3298C9.27896 49.3 9.26627 49.2319 9.27816 49.1253C9.33537 48.6031 9.43983 47.9109 9.59155 47.0489C9.61756 46.8254 9.6737 46.4611 9.75996 45.956C10.0328 44.1709 10.1934 42.9617 10.2416 42.3285C10.2921 41.6848 10.3251 41.3264 10.3408 41.2534C10.3586 41.17 10.4215 41.0798 10.5295 40.9829C10.6375 40.8861 10.728 40.8454 10.8011 40.861C10.9679 40.8968 11.0779 41.0457 11.1308 41.3079C11.1584 41.4338 11.1176 41.9051 11.0083 42.7216C10.8991 43.5382 10.7381 44.5454 10.5254 45.7434L10.0914 48.154C11.0445 46.5035 11.9827 45.0245 12.9061 43.7167C13.8318 42.3985 14.5501 41.7941 15.0612 41.9035C15.4054 41.9772 15.5866 42.2777 15.6046 42.8052C15.6226 43.3326 15.5301 44.0709 15.327 45.0201C15.2199 45.5208 15.0555 46.2382 14.8337 47.1725L14.6641 47.8889C15.4109 46.4888 16.1011 45.3276 16.7349 44.4051C17.379 43.4848 17.9149 43.0704 18.3426 43.1619C19.4169 43.3918 19.4452 45.8849 18.4275 50.6413Z"
    fill="white" />
  <path
    d="M27.0084 48.4686C27.0814 48.4842 27.1012 48.5703 27.0677 48.7267C27.0275 48.9145 26.7986 49.2963 26.3808 49.8723C25.9735 50.4506 25.4301 50.9506 24.7508 51.3725C24.082 51.7966 23.3407 51.9216 22.5271 51.7475C21.8596 51.6047 21.3462 51.2767 20.9869 50.7635C20.6277 50.2503 20.5407 49.5608 20.7259 48.6951C20.9 47.8815 21.2596 47.1185 21.8048 46.4062C22.3521 45.6833 22.9818 45.1363 23.6939 44.7651C24.4083 44.3835 25.0888 44.2618 25.7355 44.4002C26.1214 44.4828 26.4258 44.6406 26.6486 44.8737C26.8841 45.0987 26.9672 45.3728 26.8981 45.6961C26.8199 46.0612 26.5354 46.3712 26.0446 46.6261C25.5641 46.8833 24.9674 47.072 24.2545 47.1921C23.5416 47.3123 22.8234 47.355 22.1 47.3202C21.8722 47.7732 21.7092 48.2292 21.611 48.6881C21.4816 49.2931 21.5219 49.7926 21.7321 50.1866C21.9528 50.5829 22.3291 50.838 22.861 50.9518C23.6642 51.1236 24.3775 50.9763 25.0009 50.5097C25.6243 50.0432 26.1799 49.4858 26.6677 48.8375C26.6975 48.8002 26.7507 48.7298 26.8274 48.6262C26.9064 48.5122 26.9667 48.4597 27.0084 48.4686ZM26.1572 45.7176C26.1929 45.5507 26.1321 45.4014 25.9749 45.2695C25.8281 45.14 25.6399 45.0506 25.4105 45.0015C25.0141 44.9167 24.6055 44.9656 24.1846 45.1483C23.7638 45.3309 23.3891 45.578 23.0607 45.8895C22.7426 46.2032 22.517 46.4931 22.3837 46.7591C22.8747 46.8096 23.4096 46.7823 23.9884 46.6771C24.5672 46.5718 25.0619 46.4268 25.4723 46.2419C25.8932 46.0593 26.1215 45.8845 26.1572 45.7176Z"
    fill="white" />
  <path
    d="M43.6325 10.0314C42.2912 8.77203 42.3407 8.35009 44.1453 4.12134C43.7253 4.2817 43.4203 4.36369 43.1427 4.50835C40.5626 5.85721 38.2072 7.52686 36.0565 9.47132C32.5317 12.6554 29.2608 16.0787 26.3691 19.8465C25.7642 20.6371 24.984 21.3681 25.0044 22.5253C25.0068 22.7471 24.5216 22.9746 24.2612 23.1986C24.14 23.1262 24.0157 23.0525 23.8945 22.98C24.0112 22.4158 24.0092 21.7904 24.2694 21.3041C24.8482 20.2201 25.469 19.1357 26.2258 18.1745C29.0325 14.6109 32.0155 11.1832 35.4886 8.25114C37.5664 6.49843 39.9012 5.03798 42.1381 3.47292C42.7276 3.06266 43.3837 2.74799 44.2834 2.2337C43.691 2.18729 43.3737 2.09874 43.0775 2.14975C41.0881 2.49876 39.1048 2.88475 37.1178 3.24509C36.6403 3.33075 35.984 3.72472 35.7658 3.03732C35.5421 2.33738 36.3211 2.29252 36.764 2.14475C39.6377 1.18901 42.6057 0.784982 45.641 0.728712C47.055 0.702366 47.4039 1.43843 46.7599 2.58956C46.2101 3.57463 45.6199 4.54706 44.9688 5.47103C44.0479 6.77398 43.5062 8.17638 43.6252 10.032L43.6325 10.0314Z"
    fill="white" />
</svg>