<svg width="64" height="64" viewBox="0 0 64 64" fill="none" xmlns="http://www.w3.org/2000/svg">
	<g clip-path="url(#clip0_2187_133)">
		<g clip-path="url(#clip1_2187_133)">
			<path d="M43.8463 24.1915C45.6661 24.6654 47.5185 23.6015 47.9836 21.8151C48.4488 20.0288 47.3507 18.1965 45.5309 17.7226C43.7111 17.2487 41.8587 18.3126 41.3935 20.099C40.9283 21.8853 42.0265 23.7176 43.8463 24.1915Z" fill="#61DAFB" />
			<path d="M42.9623 27.5841C52.7271 30.127 61.4157 29.2215 62.3687 25.5617C63.3218 21.9018 56.1785 16.8735 46.4137 14.3306C36.6489 11.7877 27.9603 12.6932 27.0072 16.3531C26.0541 20.0129 33.1975 25.0412 42.9623 27.5841Z" stroke="#61DAFB" stroke-width="1.66095" />
			<path d="M37.9785 22.748C40.6991 32.3206 45.9085 39.2788 49.6139 38.2898C53.3193 37.3007 54.1176 28.7388 51.3969 19.1662C48.6763 9.5936 43.4669 2.63531 39.7615 3.62439C36.056 4.61348 35.2578 13.1754 37.9785 22.748Z" stroke="#61DAFB" stroke-width="1.66095" />
			<path d="M39.7051 16.1214C32.661 23.1511 29.1818 31.0148 31.9342 33.6856C34.6865 36.3564 42.6281 32.8228 49.6722 25.7931C56.7164 18.7634 60.1955 10.8996 57.4432 8.22884C54.6909 5.55808 46.7493 9.09168 39.7051 16.1214Z" stroke="#61DAFB" stroke-width="1.66095" />
		</g>
		<g clip-path="url(#clip2_2187_133)">
			<path d="M15.5659 42.6223L46.645 47.5889L44.89 58.5709C44.4776 61.1517 42.1849 62.8126 39.6042 62.4001L17.6401 58.8902C15.0594 58.4777 13.3985 56.1851 13.8109 53.6043L15.5659 42.6223Z" fill="black" />
			<path d="M22.1421 41.8878C21.8528 41.4885 21.4516 41.1839 20.9893 41.0126C20.5269 40.8413 20.0241 40.8109 19.5445 40.9254C19.0649 41.0398 18.6299 41.2939 18.2947 41.6555C17.9595 42.0172 17.7391 42.4701 17.6613 42.957C17.5835 43.4439 17.6518 43.9429 17.8576 44.391C18.0634 44.8391 18.3975 45.2161 18.8175 45.4743C19.2376 45.7325 19.7248 45.8604 20.2175 45.8417C20.7103 45.823 21.1864 45.6586 21.5857 45.3694L40.0681 48.323C40.3574 48.7223 40.7586 49.0268 41.221 49.1981C41.6834 49.3695 42.1861 49.3998 42.6658 49.2854C43.1454 49.1709 43.5803 48.9168 43.9155 48.5552C44.2507 48.1936 44.4712 47.7407 44.549 47.2538C44.6268 46.7669 44.5585 46.2678 44.3526 45.8197C44.1468 45.3717 43.8128 44.9947 43.3927 44.7365C42.9726 44.4782 42.4854 44.3504 41.9927 44.3691C41.5 44.3877 41.0238 44.5521 40.6245 44.8414L22.1421 41.8878Z" fill="#FFB13B" stroke="black" stroke-width="4.22707" />
			<path d="M27.0417 36.4924C27.1195 36.0055 27.0512 35.5065 26.8454 35.0584C26.6396 34.6103 26.3055 34.2333 25.8854 33.9751C25.4654 33.7169 24.9782 33.589 24.4854 33.6077C23.9927 33.6264 23.5166 33.7908 23.1173 34.08C22.7179 34.3693 22.4134 34.7705 22.2421 35.2329C22.0708 35.6952 22.0404 36.198 22.1548 36.6776C22.2693 37.1573 22.5234 37.5922 22.885 37.9274C23.2466 38.2626 23.6995 38.483 24.1864 38.5609L35.167 53.7184C35.0892 54.2053 35.1575 54.7044 35.3633 55.1524C35.5691 55.6005 35.9032 55.9775 36.3232 56.2357C36.7433 56.4939 37.2305 56.6218 37.7232 56.6031C38.216 56.5845 38.6921 56.4201 39.0914 56.1308C39.4907 55.8415 39.7953 55.4403 39.9666 54.978C40.1379 54.5156 40.1683 54.0128 40.0538 53.5332C39.9394 53.0536 39.6853 52.6187 39.3237 52.2835C38.962 51.9482 38.5091 51.7278 38.0222 51.65L27.0417 36.4924Z" fill="#FFB13B" stroke="black" stroke-width="4.22707" />
			<path d="M34.3222 36.1426C34.7215 35.8533 35.0261 35.4521 35.1974 34.9897C35.3687 34.5274 35.399 34.0246 35.2846 33.545C35.1701 33.0653 34.916 32.6304 34.5544 32.2952C34.1928 31.96 33.7399 31.7396 33.253 31.6618C32.7661 31.5839 32.267 31.6523 31.819 31.8581C31.3709 32.0639 30.9939 32.398 30.7357 32.818C30.4775 33.2381 30.3496 33.7253 30.3683 34.218C30.387 34.7108 30.5513 35.1869 30.8406 35.5862L27.887 54.0686C27.4877 54.3579 27.1831 54.7591 27.0118 55.2215C26.8405 55.6838 26.8102 56.1866 26.9246 56.6662C27.039 57.1459 27.2931 57.5808 27.6548 57.916C28.0164 58.2512 28.4693 58.4716 28.9562 58.5495C29.4431 58.6273 29.9421 58.5589 30.3902 58.3531C30.8383 58.1473 31.2153 57.8133 31.4735 57.3932C31.7317 56.9731 31.8596 56.4859 31.8409 55.9932C31.8222 55.5005 31.6579 55.0243 31.3686 54.625L34.3222 36.1426Z" fill="#FFB13B" stroke="black" stroke-width="4.22707" />
			<path d="M39.7178 41.0429C40.2047 41.1207 40.7037 41.0524 41.1518 40.8466C41.5999 40.6408 41.9769 40.3067 42.2351 39.8867C42.4933 39.4666 42.6212 38.9794 42.6025 38.4866C42.5838 37.9939 42.4194 37.5178 42.1302 37.1185C41.8409 36.7192 41.4397 36.4146 40.9773 36.2433C40.515 36.072 40.0122 36.0416 39.5326 36.1561C39.0529 36.2705 38.618 36.5246 38.2828 36.8862C37.9476 37.2478 37.7272 37.7007 37.6493 38.1877L22.4918 49.1682C22.0049 49.0904 21.5058 49.1587 21.0578 49.3645C20.6097 49.5703 20.2327 49.9044 19.9745 50.3245C19.7163 50.7445 19.5884 51.2317 19.6071 51.7245C19.6258 52.2172 19.7901 52.6933 20.0794 53.0926C20.3687 53.492 20.7699 53.7965 21.2322 53.9678C21.6946 54.1391 22.1974 54.1695 22.677 54.055C23.1566 53.9406 23.5915 53.6865 23.9267 53.3249C24.262 52.9633 24.4824 52.5104 24.5602 52.0235L39.7178 41.0429Z" fill="#FFB13B" stroke="black" stroke-width="4.22707" />
			<path d="M22.1421 41.8878C21.8528 41.4885 21.4516 41.1839 20.9893 41.0126C20.5269 40.8413 20.0241 40.8109 19.5445 40.9254C19.0649 41.0398 18.6299 41.2939 18.2947 41.6555C17.9595 42.0172 17.7391 42.4701 17.6613 42.957C17.5835 43.4439 17.6518 43.9429 17.8576 44.391C18.0634 44.8391 18.3975 45.2161 18.8175 45.4743C19.2376 45.7325 19.7248 45.8604 20.2175 45.8417C20.7103 45.823 21.1864 45.6586 21.5857 45.3694L40.0681 48.323C40.3574 48.7223 40.7586 49.0268 41.221 49.1981C41.6834 49.3695 42.1861 49.3998 42.6658 49.2854C43.1454 49.1709 43.5803 48.9168 43.9155 48.5552C44.2507 48.1936 44.4712 47.7407 44.549 47.2538C44.6268 46.7669 44.5585 46.2678 44.3526 45.8197C44.1468 45.3717 43.8128 44.9947 43.3927 44.7365C42.9726 44.4782 42.4854 44.3504 41.9927 44.3691C41.5 44.3877 41.0238 44.5521 40.6245 44.8414L22.1421 41.8878Z" fill="#FFB13B" />
			<path d="M27.0417 36.4924C27.1195 36.0055 27.0512 35.5065 26.8454 35.0584C26.6396 34.6103 26.3055 34.2333 25.8854 33.9751C25.4654 33.7169 24.9782 33.589 24.4854 33.6077C23.9927 33.6264 23.5166 33.7908 23.1173 34.08C22.7179 34.3693 22.4134 34.7705 22.2421 35.2329C22.0708 35.6952 22.0404 36.198 22.1548 36.6776C22.2693 37.1573 22.5234 37.5922 22.885 37.9274C23.2466 38.2626 23.6995 38.483 24.1864 38.5609L35.167 53.7184C35.0892 54.2053 35.1575 54.7044 35.3633 55.1524C35.5691 55.6005 35.9032 55.9775 36.3232 56.2357C36.7433 56.4939 37.2305 56.6218 37.7232 56.6031C38.216 56.5845 38.6921 56.4201 39.0914 56.1308C39.4907 55.8415 39.7953 55.4403 39.9666 54.978C40.1379 54.5156 40.1683 54.0128 40.0538 53.5332C39.9394 53.0536 39.6853 52.6187 39.3237 52.2835C38.962 51.9482 38.5091 51.7278 38.0222 51.65L27.0417 36.4924Z" fill="#FFB13B" />
			<path d="M34.3222 36.1426C34.7215 35.8533 35.0261 35.4521 35.1974 34.9897C35.3687 34.5274 35.399 34.0246 35.2846 33.545C35.1701 33.0653 34.916 32.6304 34.5544 32.2952C34.1928 31.96 33.7399 31.7396 33.253 31.6618C32.7661 31.5839 32.267 31.6523 31.819 31.8581C31.3709 32.0639 30.9939 32.398 30.7357 32.818C30.4775 33.2381 30.3496 33.7253 30.3683 34.218C30.387 34.7108 30.5513 35.1869 30.8406 35.5862L27.887 54.0686C27.4877 54.3579 27.1831 54.7591 27.0118 55.2215C26.8405 55.6838 26.8102 56.1866 26.9246 56.6662C27.039 57.1459 27.2931 57.5808 27.6548 57.916C28.0164 58.2512 28.4693 58.4716 28.9562 58.5495C29.4431 58.6273 29.9421 58.5589 30.3902 58.3531C30.8383 58.1473 31.2153 57.8133 31.4735 57.3932C31.7317 56.9731 31.8596 56.4859 31.8409 55.9932C31.8222 55.5005 31.6579 55.0243 31.3686 54.625L34.3222 36.1426Z" fill="#FFB13B" />
			<path d="M39.7178 41.0429C40.2047 41.1207 40.7037 41.0524 41.1518 40.8466C41.5999 40.6408 41.9769 40.3067 42.2351 39.8867C42.4933 39.4666 42.6212 38.9794 42.6025 38.4866C42.5838 37.9939 42.4194 37.5178 42.1302 37.1185C41.8409 36.7192 41.4397 36.4146 40.9773 36.2433C40.515 36.072 40.0122 36.0416 39.5326 36.1561C39.0529 36.2705 38.618 36.5246 38.2828 36.8862C37.9476 37.2478 37.7272 37.7007 37.6493 38.1877L22.4918 49.1682C22.0049 49.0904 21.5058 49.1587 21.0578 49.3645C20.6097 49.5703 20.2327 49.9044 19.9745 50.3245C19.7163 50.7445 19.5884 51.2317 19.6071 51.7245C19.6258 52.2172 19.7901 52.6933 20.0794 53.0926C20.3687 53.492 20.7699 53.7965 21.2322 53.9678C21.6946 54.1391 22.1974 54.1695 22.677 54.055C23.1566 53.9406 23.5915 53.6865 23.9267 53.3249C24.262 52.9633 24.4824 52.5104 24.5602 52.0235L39.7178 41.0429Z" fill="#FFB13B" />
			<path d="M15.5659 42.6223L46.645 47.5889L44.89 58.5709C44.4776 61.1517 42.1849 62.8126 39.6042 62.4001L17.6401 58.8902C15.0594 58.4777 13.3985 56.1851 13.8109 53.6043L15.5659 42.6223Z" fill="black" />
			<path d="M18.9899 51.125C18.3774 50.2797 18.087 49.2012 18.2647 48.0896C18.6201 45.8655 20.7121 44.351 22.9351 44.7063C25.1592 45.0617 26.675 47.1528 26.3195 49.3768L23.9606 48.9999C24.1078 48.0787 23.4795 47.2127 22.5581 47.0654C21.6369 46.9182 20.771 47.5455 20.6238 48.4666C20.5503 48.9268 20.6706 49.3735 20.9232 49.7225L20.9243 49.7227C21.1779 50.074 21.4153 50.2018 22.025 50.4011C23.1192 50.6947 24.072 51.1909 24.6843 52.0361C25.2968 52.8816 25.5871 53.9601 25.4095 55.0717C25.0541 57.2957 22.9619 58.8114 20.7378 58.456C18.5148 58.1007 16.9992 56.0085 17.3546 53.7845L19.7138 54.1615C19.5666 55.0826 20.1936 55.9496 21.1148 56.0968C22.0362 56.244 22.9033 55.6159 23.0505 54.6947C23.1241 54.2345 23.0036 53.7889 22.751 53.4388L22.7499 53.4386C22.4961 53.0884 22.0794 52.915 21.6479 52.7611L21.648 52.76C20.596 52.4223 19.6022 51.9704 18.9899 51.125Z" fill="white" />
			<path d="M35.0166 46.637L29.9706 59.9314L27.6117 59.5544L26.9624 45.3499L29.3213 45.7268L29.7037 54.0462L32.6577 46.26L35.0166 46.637Z" fill="white" />
			<path d="M38.135 52.9755L42.1619 53.619L41.5184 57.6459L41.5195 57.6461C41.164 59.8704 39.0719 61.386 36.8478 61.0306C34.6235 60.6751 33.1092 58.5832 33.4646 56.3589L34.3747 50.6643L34.3736 50.6641C34.729 48.44 36.8208 46.9254 39.0451 47.2809C41.268 47.6361 42.7839 49.7272 42.4284 51.9513L40.0693 51.5743C40.2163 50.654 39.5882 49.7869 38.6681 49.6398C37.7467 49.4926 36.8807 50.1209 36.7336 51.0412L35.8236 56.7358C35.6763 57.6572 36.3036 58.5231 37.225 58.6703C38.145 58.8174 39.0109 58.1901 39.1591 57.27L39.1592 57.2689L39.4256 55.6023L37.7579 55.3358L38.135 52.9755Z" fill="white" />
		</g>
		<g clip-path="url(#clip3_2187_133)">
			<path d="M32.6613 7.99047L22.7501 37.5814C22.5455 38.1923 21.7468 38.3501 21.3251 37.863L0.800153 14.1522C0.340662 13.6214 0.716676 12.7982 1.42371 12.787L17.0242 12.5406C17.1237 12.539 17.2222 12.5198 17.3151 12.4839L31.5689 6.9636C32.2265 6.70893 32.8836 7.32665 32.6613 7.99047Z" fill="url(#paint0_linear_2187_133)" />
			<path d="M23.0169 4.98062L12.2841 9.2996C12.1077 9.37059 12.0017 9.5506 12.0263 9.73729L13.5577 21.3402C13.5938 21.6135 13.8849 21.7747 14.1395 21.6624L17.107 20.3529C17.3846 20.2304 17.6961 20.433 17.6923 20.7337L17.6344 25.384C17.6305 25.697 17.9657 25.8992 18.2453 25.7525L20.0513 24.805C20.3313 24.6582 20.6668 24.8611 20.6622 25.1745L20.5543 32.4823C20.5475 32.9394 21.1841 33.0649 21.3574 32.6406L21.4732 32.3572L27.089 12.6466C27.183 12.3166 26.8544 12.0245 26.5332 12.1527L23.4556 13.3811C23.1664 13.4965 22.8573 13.269 22.8859 12.9617L23.5877 5.39956C23.6162 5.09176 23.3063 4.86419 23.0169 4.98062Z" fill="url(#paint1_linear_2187_133)" />
		</g>
	</g>
	<defs>
		<linearGradient id="paint0_linear_2187_133" x1="0.00870078" y1="12.0715" x2="23.4298" y2="33.8856" gradientUnits="userSpaceOnUse">
			<stop stop-color="#41D1FF" />
			<stop offset="1" stop-color="#BD34FE" />
		</linearGradient>
		<linearGradient id="paint1_linear_2187_133" x1="15.0791" y1="7.12438" x2="22.8621" y2="29.5322" gradientUnits="userSpaceOnUse">
			<stop stop-color="#FFEA83" />
			<stop offset="0.0833333" stop-color="#FFDD35" />
			<stop offset="1" stop-color="#FFA800" />
		</linearGradient>
		<clipPath id="clip0_2187_133">
			<rect width="64" height="64" fill="white" />
		</clipPath>
		<clipPath id="clip1_2187_133">
			<rect width="38.2018" height="33.364" fill="white" transform="translate(30.4082) rotate(14.5964)" />
		</clipPath>
		<clipPath id="clip2_2187_133">
			<rect width="33.364" height="33.364" fill="white" transform="translate(17.2651 26) rotate(9.07943)" />
		</clipPath>
		<clipPath id="clip3_2187_133">
			<rect width="34.1981" height="33.364" fill="white" transform="translate(-1 9.49072) rotate(-10.941)" />
		</clipPath>
	</defs>
</svg>
