<svg width="990" height="256" viewBox="0 0 990 256" fill="none" xmlns="http://www.w3.org/2000/svg">
<path d="M214.821 57.4675L122.822 220.349C120.922 223.712 116.042 223.732 114.114 220.385L20.291 57.4832C18.1906 53.8363 21.3403 49.419 25.5142 50.1576L117.612 66.4565C118.199 66.5605 118.801 66.5595 119.388 66.4535L209.56 50.181C213.72 49.4303 216.884 53.8135 214.821 57.4675Z" fill="url(#paint0_linear_2186_38)"/>
<path d="M161.482 28.7795L93.4004 41.9878C92.2814 42.2049 91.4529 43.1438 91.3854 44.2706L87.1974 114.302C87.0989 115.952 88.6289 117.232 90.2549 116.86L109.21 112.529C110.983 112.124 112.586 113.671 112.221 115.437L106.59 142.74C106.211 144.578 107.953 146.149 109.766 145.604L121.473 142.082C123.288 141.537 125.032 143.112 124.648 144.952L115.699 187.839C115.139 190.522 118.743 191.985 120.246 189.685L121.25 188.149L176.727 78.5308C177.656 76.6954 176.054 74.6026 174.018 74.9916L154.507 78.7199C152.673 79.0699 151.113 77.3793 151.631 75.6032L164.365 31.8946C164.883 30.1155 163.318 28.4234 161.482 28.7795Z" fill="url(#paint1_linear_2186_38)"/>
<g clip-path="url(#clip0_2186_38)">
<path d="M497.502 148.035C508.775 148.035 517.913 139.064 517.913 127.999C517.913 116.934 508.775 107.963 497.502 107.963C486.23 107.963 477.091 116.934 477.091 127.999C477.091 139.064 486.23 148.035 497.502 148.035Z" fill="#61DAFB"/>
<path d="M497.5 169.049C557.987 169.049 607.022 150.67 607.022 128C607.022 105.329 557.987 86.9512 497.5 86.9512C437.013 86.9512 387.979 105.329 387.979 128C387.979 150.67 437.013 169.049 497.5 169.049Z" stroke="#61DAFB" stroke-width="9.95652"/>
<path d="M461.284 148.525C491.528 199.945 532.259 232.441 552.26 221.105C572.261 209.77 563.958 158.896 533.714 107.476C503.47 56.0552 462.739 23.5597 442.738 34.895C422.737 46.2303 431.041 97.1039 461.284 148.525Z" stroke="#61DAFB" stroke-width="9.95652"/>
<path d="M461.284 107.475C431.041 158.896 422.737 209.77 442.738 221.105C462.739 232.44 503.471 199.945 533.714 148.524C563.958 97.1035 572.261 46.2299 552.26 34.8946C532.259 23.5593 491.528 56.0548 461.284 107.475Z" stroke="#61DAFB" stroke-width="9.95652"/>
</g>
<path d="M699.5 95H687.5V122.5H660V134.5H687.5V162H699.5V134.5H727V122.5H699.5V95Z" fill="url(#paint2_linear_2186_38)"/>
<path d="M307.5 95H295.5V122.5H268V134.5H295.5V162H307.5V134.5H335V122.5H307.5V95Z" fill="url(#paint3_linear_2186_38)"/>
<path d="M780.667 128H969.333V194.667C969.333 210.333 957.333 222.333 941.667 222.333H808.333C792.667 222.333 780.667 210.333 780.667 194.667V128Z" fill="black"/>
<path d="M818.901 117.433C816.811 115.343 814.148 113.919 811.249 113.343C808.35 112.766 805.345 113.062 802.614 114.193C799.884 115.324 797.549 117.24 795.907 119.697C794.265 122.155 793.389 125.044 793.389 128C793.389 130.956 794.265 133.845 795.907 136.303C797.549 138.761 799.884 140.676 802.614 141.807C805.345 142.938 808.35 143.234 811.249 142.658C814.148 142.081 816.811 140.658 818.901 138.568H931.099C933.189 140.658 935.852 142.081 938.751 142.658C941.65 143.234 944.655 142.938 947.386 141.807C950.117 140.676 952.451 138.761 954.093 136.303C955.735 133.845 956.611 130.956 956.611 128C956.611 125.044 955.735 122.155 954.093 119.697C952.451 117.24 950.117 115.324 947.386 114.193C944.655 113.062 941.65 112.766 938.751 113.343C935.852 113.919 933.189 115.343 931.099 117.433H818.901Z" fill="#FFB13B" stroke="black" stroke-width="25.3391"/>
<path d="M842.805 80.8596C842.805 77.9039 841.928 75.0144 840.286 72.5568C838.644 70.0992 836.31 68.1837 833.579 67.0525C830.848 65.9214 827.843 65.6254 824.944 66.2021C822.045 66.7787 819.382 68.2021 817.292 70.2921C815.202 72.3822 813.779 75.0451 813.202 77.9441C812.626 80.8431 812.922 83.848 814.053 86.5788C815.184 89.3095 817.099 91.6436 819.557 93.2857C822.015 94.9279 824.904 95.8044 827.86 95.8044L907.196 175.141C907.196 178.096 908.073 180.986 909.715 183.443C911.357 185.901 913.691 187.817 916.422 188.948C919.152 190.079 922.157 190.375 925.056 189.798C927.955 189.221 930.618 187.798 932.708 185.708C934.798 183.618 936.222 180.955 936.798 178.056C937.375 175.157 937.079 172.152 935.948 169.421C934.817 166.691 932.901 164.357 930.444 162.714C927.986 161.072 925.097 160.196 922.141 160.196L842.805 80.8596Z" fill="#FFB13B" stroke="black" stroke-width="25.3391"/>
<path d="M885.568 71.9009C887.658 69.8109 889.081 67.148 889.658 64.249C890.234 61.35 889.938 58.3451 888.807 55.6143C887.676 52.8835 885.761 50.5495 883.303 48.9073C880.845 47.2652 877.956 46.3887 875 46.3887C872.044 46.3887 869.155 47.2652 866.697 48.9073C864.24 50.5495 862.324 52.8835 861.193 55.6143C860.062 58.3451 859.766 61.35 860.343 64.249C860.919 67.148 862.342 69.8109 864.433 71.9009V184.099C862.342 186.189 860.919 188.852 860.343 191.751C859.766 194.65 860.062 197.655 861.193 200.386C862.324 203.117 864.24 205.451 866.697 207.093C869.155 208.735 872.044 209.611 875 209.611C877.956 209.611 880.845 208.735 883.303 207.093C885.761 205.451 887.676 203.117 888.807 200.386C889.938 197.655 890.234 194.65 889.658 191.751C889.081 188.852 887.658 186.189 885.568 184.099V71.9009Z" fill="#FFB13B" stroke="black" stroke-width="25.3391"/>
<path d="M922.14 95.8044C925.096 95.8043 927.986 94.9278 930.443 93.2857C932.901 91.6436 934.816 89.3095 935.947 86.5787C937.079 83.8479 937.375 80.843 936.798 77.944C936.221 75.045 934.798 72.3821 932.708 70.2921C930.618 68.202 927.955 66.7787 925.056 66.202C922.157 65.6254 919.152 65.9214 916.421 67.0525C913.69 68.1836 911.356 70.0991 909.714 72.5568C908.072 75.0144 907.196 77.9038 907.196 80.8596L827.859 160.196C824.904 160.196 822.014 161.072 819.557 162.714C817.099 164.357 815.183 166.691 814.052 169.421C812.921 172.152 812.625 175.157 813.202 178.056C813.779 180.955 815.202 183.618 817.292 185.708C819.382 187.798 822.045 189.221 824.944 189.798C827.843 190.375 830.848 190.079 833.579 188.948C836.309 187.816 838.643 185.901 840.286 183.443C841.928 180.986 842.804 178.096 842.804 175.141L922.14 95.8044Z" fill="#FFB13B" stroke="black" stroke-width="25.3391"/>
<path d="M818.901 117.433C816.811 115.343 814.148 113.919 811.249 113.343C808.35 112.766 805.345 113.062 802.614 114.193C799.884 115.324 797.549 117.24 795.907 119.697C794.265 122.155 793.389 125.044 793.389 128C793.389 130.956 794.265 133.845 795.907 136.303C797.549 138.761 799.884 140.676 802.614 141.807C805.345 142.938 808.35 143.234 811.249 142.658C814.148 142.081 816.811 140.658 818.901 138.568H931.099C933.189 140.658 935.852 142.081 938.751 142.658C941.65 143.234 944.655 142.938 947.386 141.807C950.117 140.676 952.451 138.761 954.093 136.303C955.735 133.845 956.611 130.956 956.611 128C956.611 125.044 955.735 122.155 954.093 119.697C952.451 117.24 950.117 115.324 947.386 114.193C944.655 113.062 941.65 112.766 938.751 113.343C935.852 113.919 933.189 115.343 931.099 117.433H818.901Z" fill="#FFB13B"/>
<path d="M842.805 80.8596C842.805 77.9039 841.928 75.0144 840.286 72.5568C838.644 70.0992 836.31 68.1837 833.579 67.0525C830.848 65.9214 827.843 65.6254 824.944 66.2021C822.045 66.7787 819.382 68.2021 817.292 70.2921C815.202 72.3822 813.779 75.0451 813.202 77.9441C812.626 80.8431 812.922 83.848 814.053 86.5788C815.184 89.3095 817.099 91.6436 819.557 93.2857C822.015 94.9279 824.904 95.8044 827.86 95.8044L907.196 175.141C907.196 178.096 908.073 180.986 909.715 183.443C911.357 185.901 913.691 187.817 916.422 188.948C919.152 190.079 922.157 190.375 925.056 189.798C927.955 189.221 930.618 187.798 932.708 185.708C934.798 183.618 936.222 180.955 936.798 178.056C937.375 175.157 937.079 172.152 935.948 169.421C934.817 166.691 932.901 164.357 930.444 162.714C927.986 161.072 925.097 160.196 922.141 160.196L842.805 80.8596Z" fill="#FFB13B"/>
<path d="M885.568 71.9009C887.658 69.8109 889.081 67.148 889.658 64.249C890.234 61.35 889.938 58.3451 888.807 55.6143C887.676 52.8835 885.761 50.5495 883.303 48.9073C880.845 47.2652 877.956 46.3887 875 46.3887C872.044 46.3887 869.155 47.2652 866.697 48.9073C864.24 50.5495 862.324 52.8835 861.193 55.6143C860.062 58.3451 859.766 61.35 860.343 64.249C860.919 67.148 862.342 69.8109 864.433 71.9009V184.099C862.342 186.189 860.919 188.852 860.343 191.751C859.766 194.65 860.062 197.655 861.193 200.386C862.324 203.117 864.24 205.451 866.697 207.093C869.155 208.735 872.044 209.611 875 209.611C877.956 209.611 880.845 208.735 883.303 207.093C885.761 205.451 887.676 203.117 888.807 200.386C889.938 197.655 890.234 194.65 889.658 191.751C889.081 188.852 887.658 186.189 885.568 184.099V71.9009Z" fill="#FFB13B"/>
<path d="M922.14 95.8044C925.096 95.8043 927.986 94.9278 930.443 93.2857C932.901 91.6436 934.816 89.3095 935.947 86.5787C937.079 83.8479 937.375 80.843 936.798 77.944C936.221 75.045 934.798 72.3821 932.708 70.2921C930.618 68.202 927.955 66.7787 925.056 66.202C922.157 65.6254 919.152 65.9214 916.421 67.0525C913.69 68.1836 911.356 70.0991 909.714 72.5568C908.072 75.0144 907.196 77.9038 907.196 80.8596L827.859 160.196C824.904 160.196 822.014 161.072 819.557 162.714C817.099 164.357 815.183 166.691 814.052 169.421C812.921 172.152 812.625 175.157 813.202 178.056C813.779 180.955 815.202 183.618 817.292 185.708C819.382 187.798 822.045 189.221 824.944 189.798C827.843 190.375 830.848 190.079 833.579 188.948C836.309 187.816 838.643 185.901 840.286 183.443C841.928 180.986 842.804 178.096 842.804 175.141L922.14 95.8044Z" fill="#FFB13B"/>
<path d="M780.667 128H969.333V194.667C969.333 210.333 957.333 222.333 941.667 222.333H808.333C792.667 222.333 780.667 210.333 780.667 194.667V128Z" fill="black"/>
<path d="M808.976 175.092C804.551 170.668 801.812 164.559 801.812 157.811C801.812 144.309 812.763 133.365 826.257 133.365C839.759 133.365 850.709 144.309 850.709 157.811H836.389C836.389 152.219 831.851 147.687 826.257 147.687C820.665 147.687 816.133 152.219 816.133 157.811C816.133 160.604 817.268 163.135 819.093 164.961H819.1C820.933 166.801 822.46 167.333 826.257 167.936C833.012 168.639 839.121 170.675 843.545 175.099C847.971 179.524 850.709 185.633 850.709 192.381C850.709 205.883 839.759 216.833 826.257 216.833C812.763 216.833 801.812 205.883 801.812 192.381H816.133C816.133 197.973 820.665 202.512 826.257 202.512C831.851 202.512 836.389 197.973 836.389 192.381C836.389 189.588 835.255 187.064 833.428 185.231H833.421C831.588 183.397 828.957 182.765 826.257 182.263V182.256C819.711 181.252 813.4 179.517 808.976 175.092Z" fill="white"/>
<path d="M899.603 133.365L882.309 216.833H867.989L850.709 133.365H865.029L875.163 182.249L885.283 133.365H899.603Z" fill="white"/>
<path d="M924.056 167.936H948.501V192.381H948.508C948.508 205.884 937.557 216.835 924.056 216.835C910.553 216.835 899.611 205.884 899.611 192.381V157.812H899.604C899.604 144.311 910.553 133.367 924.056 133.367C937.551 133.367 948.501 144.311 948.501 157.812H934.18C934.18 152.225 929.641 147.687 924.056 147.687C918.463 147.687 913.931 152.225 913.931 157.812V192.381C913.931 197.975 918.463 202.507 924.056 202.507C929.641 202.507 934.173 197.975 934.18 192.388V192.381V182.264H924.056V167.936Z" fill="white"/>
<defs>
<linearGradient id="paint0_linear_2186_38" x1="18.0003" y1="44.3365" x2="131.027" y2="199.371" gradientUnits="userSpaceOnUse">
<stop stop-color="#41D1FF"/>
<stop offset="1" stop-color="#BD34FE"/>
</linearGradient>
<linearGradient id="paint1_linear_2186_38" x1="112.325" y1="32.3655" x2="132.638" y2="173.102" gradientUnits="userSpaceOnUse">
<stop stop-color="#FFEA83"/>
<stop offset="0.0833333" stop-color="#FFDD35"/>
<stop offset="1" stop-color="#FFA800"/>
</linearGradient>
<linearGradient id="paint2_linear_2186_38" x1="660" y1="95" x2="727" y2="162" gradientUnits="userSpaceOnUse">
<stop stop-color="#61DAFB"/>
<stop offset="1" stop-color="#FFB13B"/>
</linearGradient>
<linearGradient id="paint3_linear_2186_38" x1="268" y1="95" x2="335" y2="162" gradientUnits="userSpaceOnUse">
<stop stop-color="#9D5DFF"/>
<stop offset="1" stop-color="#61DAFB"/>
</linearGradient>
<clipPath id="clip0_2186_38">
<rect width="229" height="200" fill="white" transform="translate(383 28)"/>
</clipPath>
</defs>
</svg>
